<?xml version="1.0" encoding="utf-8"?>
<!-- Generator: Adobe Illustrator 16.0.0, SVG Export Plug-In . SVG Version: 6.00 Build 0)  -->
<!DOCTYPE svg PUBLIC "-//W3C//DTD SVG 1.1//EN" "http://www.w3.org/Graphics/SVG/1.1/DTD/svg11.dtd">
<svg version="1.1" id="Ebene_1" xmlns="http://www.w3.org/2000/svg" xmlns:xlink="http://www.w3.org/1999/xlink" x="0px" y="0px"
	 width="850px" height="850px" viewBox="-11.567 79.09 850 850" enable-background="new -11.567 79.09 850 850"
	 xml:space="preserve">
<g>
	<g>
		<polygon points="244.148,683.674 353.593,652.701 309.891,511.819 		"/>
	</g>
	<g>
		<polygon points="589.323,683.674 479.877,652.701 523.571,511.819 		"/>
	</g>
	<g>
		<path d="M419.092,906.926l-37.783-163.191c0-21.081,17.148-38.23,38.238-38.23c21.098,0,38.256,17.149,38.256,38.23l-0.346,2.946
			L419.092,906.926z M406.615,742.513l12.771,54.664l13.092-54.689c-0.632-6.575-6.196-11.736-12.94-11.736
			C412.795,730.752,407.231,735.929,406.615,742.513z"/>
	</g>
	<g>
		<path d="M415.843,259.412c-23.59,0-42.785,19.187-42.785,42.776s19.195,42.776,42.785,42.776s42.784-19.187,42.784-42.776
			S439.424,259.412,415.843,259.412z"/>
		<path d="M417.501,101.254c-265.818,133.322-63.386,574.001-63.386,574.001h58.023h7.399h58.032
			C477.571,675.255,683.328,234.576,417.501,101.254z M415.843,370.229c-37.523,0-68.042-30.519-68.042-68.033
			s30.519-68.033,68.042-68.033c37.515,0,68.041,30.519,68.041,68.033S453.358,370.229,415.843,370.229z"/>
	</g>
</g>
</svg>
