<?xml version="1.0" encoding="utf-8"?>
<!-- Generator: Adobe Illustrator 16.0.0, SVG Export Plug-In . SVG Version: 6.00 Build 0)  -->
<!DOCTYPE svg PUBLIC "-//W3C//DTD SVG 1.1//EN" "http://www.w3.org/Graphics/SVG/1.1/DTD/svg11.dtd">
<svg version="1.1" id="Ebene_1" xmlns="http://www.w3.org/2000/svg" xmlns:xlink="http://www.w3.org/1999/xlink" x="0px" y="0px"
	 width="631.416px" height="589.322px" viewBox="0 0 631.416 589.322" enable-background="new 0 0 631.416 589.322"
	 xml:space="preserve">
<path fill="#41C41E" d="M610.368,227.309V103.131h-0.001c12.629-4.21,21.048-16.839,21.048-29.467
	c0-16.838-14.732-31.57-31.571-31.57c-16.838,0-31.569,14.732-31.569,31.57c0,14.733,8.418,25.257,21.047,29.467v111.551
	c-2.104,0-4.21-2.104-6.314-2.104C553.541,90.503,446.2,0,315.707,0C185.216,0,77.873,90.503,48.407,212.577
	c-27.36,6.313-48.408,31.57-48.408,61.037c0,29.466,21.048,54.724,48.408,61.037c10.523,42.094,29.466,79.979,56.827,113.654v56.828
	c0,0,42.095,84.188,210.473,84.188s210.474-84.188,210.474-84.188v-56.828c27.36-31.57,46.304-71.562,56.826-113.654
	c27.361-6.313,48.409-31.571,48.409-61.037C631.416,254.673,622.997,237.835,610.368,227.309z M549.33,334.65
	c-10.522,42.094-31.57,77.874-61.037,107.341c-44.199,46.305-105.234,0-172.587,0c-67.352,0-130.491,46.305-172.587,0
	c-29.467-29.467-50.514-67.352-61.037-107.341c-6.313-21.048-8.419-39.99-8.419-61.037c0-21.048,2.104-39.989,8.419-61.037
	C109.444,107.341,204.156,73.664,315.706,73.664c113.655,0,208.368,35.78,233.624,138.912c4.21,18.942,8.419,39.989,8.419,61.037
	C557.749,294.66,555.645,313.602,549.33,334.65z"/>
<path fill="#41C41E" d="M315.706,124.177c-84.188,0-153.645,27.36-174.69,105.236c-4.21,14.731-6.314,29.466-6.314,44.198
	s2.104,29.466,6.314,44.199l2.104,4.209c42.096-33.676,111.55-71.561,204.158-71.561c-88.398,35.779-145.228,86.294-176.797,126.282
	c6.314,8.419,10.523,14.733,16.838,21.049c10.522,10.522,23.151,14.732,35.78,14.732c27.36,0,58.932-14.732,92.606-14.732
	s65.246,14.732,92.607,14.732c12.629,0,25.257-4.21,35.779-14.732c21.049-23.152,37.887-50.515,44.199-79.979
	c4.21-14.733,6.314-29.467,6.314-44.199s-2.104-29.467-6.314-44.199C469.351,149.434,399.895,124.177,315.706,124.177z"/>
</svg>
